<svg id="Layer_1" data-name="Layer 1" xmlns="http://www.w3.org/2000/svg" viewBox="0 0 287 232"><defs><style>.cls-1{fill:#64c9ff;}.cls-2{fill:#448ec1;}.cls-3{fill:#ffd459;}</style></defs><title>Acadview_Icons</title><rect class="cls-1" width="287" height="232"/><path class="cls-2" d="M83.15,115.69a2.43,2.43,0,0,0,.06-.35c0-1.06,0-2.13.09-3.19a40.38,40.38,0,0,1,2.77-13.19,20.54,20.54,0,0,1,5-7.31,15.88,15.88,0,0,1,8.27-4.11,17,17,0,0,1,2.78-.24q20.71,0,41.43,0c.31,0,.39-.09.39-.39,0-1.15,0-2.29,0-3.44,0-.39,0-.39-.4-.39H115c-.45,0-.45,0-.45-.46q0-2.49,0-5,0-4.36,0-8.72a8,8,0,0,1,1.43-4.5,13,13,0,0,1,4.48-4,26.07,26.07,0,0,1,7.41-2.82c1.57-.36,3.16-.65,4.76-.89,1.21-.19,2.43-.31,3.65-.38,2.17-.12,4.33-.23,6.5-.27,1.72,0,3.44,0,5.15.09,1.41.06,2.82.19,4.23.36a38.72,38.72,0,0,1,11.84,3,18.1,18.1,0,0,1,5.67,3.92,11.76,11.76,0,0,1,3.17,6,10,10,0,0,1,.15,1.8q0,13.67,0,27.34a18.17,18.17,0,0,1-.93,6,13.32,13.32,0,0,1-6.78,7.7,18.23,18.23,0,0,1-6.16,1.88,26,26,0,0,1-3.12.19q-14.09,0-28.18,0a20.88,20.88,0,0,0-6.85,1,14.16,14.16,0,0,0-8.5,7.72,18.93,18.93,0,0,0-1.69,6.09,28.65,28.65,0,0,0-.17,2.88c0,4.5,0,9,0,13.49,0,.42,0,.42-.43.42-3.15,0-6.3,0-9.44,0a13.16,13.16,0,0,1-7-2,17.12,17.12,0,0,1-5.87-6.15,29.33,29.33,0,0,1-3.39-9.2c-.34-1.67-.58-3.36-.79-5-.17-1.33-.23-2.68-.31-4-.05-.9-.05-1.81-.08-2.71a3,3,0,0,0-.06-.38Q83.15,116.08,83.15,115.69Zm38.64-45.16a5.32,5.32,0,1,0,5-5.33A5.33,5.33,0,0,0,121.79,70.52Z"/><path class="cls-3" d="M203.85,116.31a2.43,2.43,0,0,0-.06.35c0,1.06,0,2.13-.09,3.19a40.38,40.38,0,0,1-2.77,13.19,20.54,20.54,0,0,1-5,7.31,15.88,15.88,0,0,1-8.27,4.11,17,17,0,0,1-2.78.24q-20.71,0-41.43,0c-.31,0-.39.09-.39.39,0,1.15,0,2.29,0,3.44,0,.39,0,.39.4.39H172c.45,0,.45,0,.45.46q0,2.49,0,5,0,4.36,0,8.72a8,8,0,0,1-1.43,4.5,13,13,0,0,1-4.48,4,26.07,26.07,0,0,1-7.41,2.82c-1.57.36-3.16.65-4.76.89-1.21.19-2.43.31-3.65.38-2.17.12-4.33.23-6.5.27-1.72,0-3.44,0-5.15-.09-1.41-.06-2.82-.19-4.23-.36a38.72,38.72,0,0,1-11.84-3,18.1,18.1,0,0,1-5.67-3.92,11.76,11.76,0,0,1-3.17-6,10,10,0,0,1-.15-1.8q0-13.67,0-27.34a18.17,18.17,0,0,1,.93-6,13.32,13.32,0,0,1,6.78-7.7,18.23,18.23,0,0,1,6.16-1.88,26,26,0,0,1,3.12-.19q14.09,0,28.18,0a20.88,20.88,0,0,0,6.85-1,14.16,14.16,0,0,0,8.5-7.72,18.93,18.93,0,0,0,1.69-6.09,28.65,28.65,0,0,0,.17-2.88c0-4.5,0-9,0-13.49,0-.42,0-.42.43-.42,3.15,0,6.3,0,9.44,0a13.16,13.16,0,0,1,7,2,17.12,17.12,0,0,1,5.87,6.15,29.33,29.33,0,0,1,3.39,9.2c.34,1.67.58,3.36.79,5,.17,1.33.23,2.68.31,4,.05.9.05,1.81.08,2.71a3,3,0,0,0,.06.38Q203.85,115.92,203.85,116.31Zm-38.64,45.16a5.32,5.32,0,1,0-5,5.33A5.33,5.33,0,0,0,165.21,161.48Z"/></svg>